<svg width="24" height="24" viewBox="0 0 24 24" fill="none" xmlns="http://www.w3.org/2000/svg">
<path d="M12.0007 15.7402V15.7527M12.0007 12C12.3145 12.0001 12.6233 11.9213 12.8987 11.7708C13.174 11.6203 13.4071 11.4029 13.5764 11.1386C13.7456 10.8744 13.8457 10.5718 13.8673 10.2587C13.889 9.94568 13.8315 9.63221 13.7001 9.3472C13.5688 9.06219 13.3679 8.81481 13.1158 8.62785C12.8638 8.44089 12.5688 8.32036 12.2579 8.27736C11.9471 8.23436 11.6304 8.27027 11.3371 8.38179C11.0437 8.49331 10.7832 8.67685 10.5794 8.91551M20.728 12C20.728 16.8199 16.8206 20.7272 12.0007 20.7272C7.18077 20.7272 3.27344 16.8199 3.27344 12C3.27344 7.18004 7.18077 3.27271 12.0007 3.27271C16.8206 3.27271 20.728 7.18004 20.728 12Z" stroke="#B8B8B8" stroke-width="2" stroke-linecap="round" stroke-linejoin="round"/>
</svg>
